<?xml version="1.0" encoding="UTF-8"?>
<svg xmlns="http://www.w3.org/2000/svg" viewBox="0.78 -24.18 198.11 24.50">
  <title>Alonva</title>
  <path d="M6.18 0L0.78 0L8.94-23.86L15.34-23.86L23.70 0L18.27 0L14.45-11.52Q13.76-13.74 13.04-16.39Q12.33-19.04 11.55-22.18L12.62-22.18Q11.85-19.03 11.19-16.36Q10.52-13.69 9.87-11.52L6.18 0M18.61-5.54L5.88-5.54L5.88-9.37L18.61-9.37L18.61-5.54M53.31 0L38.13 0L38.13-23.86L43.01-23.86L43.01-4.05L53.31-4.05L53.31 0M78.63 0.32Q75.47 0.32 72.95-1.12Q70.43-2.56 68.96-5.30Q67.50-8.04 67.50-11.92Q67.50-15.81 68.96-18.55Q70.43-21.30 72.95-22.74Q75.47-24.18 78.63-24.18Q81.80-24.18 84.31-22.74Q86.83-21.30 88.29-18.55Q89.76-15.81 89.76-11.92Q89.76-8.04 88.29-5.30Q86.83-2.56 84.31-1.12Q81.80 0.32 78.63 0.32M78.63-4.02Q80.49-4.02 81.87-4.92Q83.26-5.83 84.03-7.60Q84.80-9.37 84.80-11.92Q84.80-14.49 84.03-16.26Q83.26-18.03 81.87-18.94Q80.49-19.84 78.63-19.84Q76.79-19.84 75.39-18.93Q74-18.02 73.23-16.25Q72.46-14.48 72.46-11.92Q72.46-9.37 73.23-7.61Q74-5.85 75.39-4.93Q76.79-4.02 78.63-4.02M109.90 0L104.91 0L104.91-23.86L110.35-23.86L117.90-11.79Q118.47-10.86 119.06-9.77Q119.66-8.68 120.27-7.35Q120.89-6.02 121.50-4.36L121-4.36Q120.89-5.69 120.80-7.19Q120.71-8.70 120.65-10.07Q120.59-11.45 120.59-12.41L120.59-23.86L125.58-23.86L125.58 0L120.12 0L113.27-10.95Q112.51-12.19 111.87-13.35Q111.23-14.51 110.54-15.91Q109.84-17.31 108.88-19.27L109.50-19.27Q109.60-17.54 109.70-15.95Q109.79-14.37 109.85-13.08Q109.90-11.79 109.90-10.97L109.90 0M154.76 0L148.37 0L140.01-23.86L145.44-23.86L149.25-12.35Q149.94-10.17 150.64-7.55Q151.35-4.93 152.13-1.83L151.08-1.83Q151.85-4.96 152.52-7.57Q153.19-10.17 153.85-12.35L157.53-23.86L162.93-23.86L154.76 0M181.37 0L175.98 0L184.13-23.86L190.54-23.86L198.90 0L193.47 0L189.64-11.52Q188.95-13.74 188.24-16.39Q187.52-19.04 186.74-22.18L187.81-22.18Q187.04-19.03 186.38-16.36Q185.71-13.69 185.06-11.52L181.37 0M193.80-5.54L181.07-5.54L181.07-9.37L193.80-9.37" fill="#ffffff"/>
</svg>
